<svg xmlns="http://www.w3.org/2000/svg" viewBox="0 0 160 160" role="img" aria-labelledby="title desc">
  <title id="title">Pasta Primavera</title>
  <desc id="desc">A stylized bowl of pasta with vegetables.</desc>
  <defs>
    <linearGradient id="bg" x1="0" x2="1" y1="0" y2="1">
      <stop offset="0%" stop-color="#f7fff8"/>
      <stop offset="100%" stop-color="#d7f7de"/>
    </linearGradient>
  </defs>
  <rect width="160" height="160" rx="28" fill="url(#bg)"/>
  <ellipse cx="80" cy="95" rx="48" ry="25" fill="#ffffff"/>
  <ellipse cx="80" cy="90" rx="42" ry="18" fill="#ffe1a8"/>
  <path d="M48 88c8-12 18-18 32-18s24 6 32 18" fill="none" stroke="#f4b14a" stroke-width="6" stroke-linecap="round"/>
  <path d="M56 98c10-10 22-14 24-14 10 0 20 6 28 14" fill="none" stroke="#f7c96a" stroke-width="6" stroke-linecap="round"/>
  <circle cx="58" cy="78" r="6" fill="#e05b5b"/>
  <circle cx="96" cy="76" r="6" fill="#48cb73"/>
  <circle cx="111" cy="92" r="5" fill="#168f44"/>
  <circle cx="72" cy="72" r="5" fill="#d97706"/>
  <path d="M52 45c14-12 42-16 60 0" fill="none" stroke="#168f44" stroke-width="6" stroke-linecap="round"/>
</svg>
